<svg width="107" height="43" viewBox="0 0 107 43" fill="none" xmlns="http://www.w3.org/2000/svg">
<rect x="0.5" y="0.5" width="106" height="42" rx="3.5" stroke="#55A3FF"/>
<path d="M47.8866 16.8182L50.3475 24.554H50.442L52.9079 16.8182H55.2942L51.7843 27H49.0101L45.4952 16.8182H47.8866ZM59.0689 27.1491C58.2967 27.1491 57.6288 26.9851 57.0654 26.657C56.5052 26.3255 56.0727 25.8648 55.7678 25.2749C55.4629 24.6816 55.3104 23.9938 55.3104 23.2116C55.3104 22.4228 55.4629 21.7334 55.7678 21.1435C56.0727 20.5502 56.5052 20.0895 57.0654 19.7614C57.6288 19.4299 58.2967 19.2642 59.0689 19.2642C59.8412 19.2642 60.5074 19.4299 61.0675 19.7614C61.6309 20.0895 62.0651 20.5502 62.3701 21.1435C62.675 21.7334 62.8274 22.4228 62.8274 23.2116C62.8274 23.9938 62.675 24.6816 62.3701 25.2749C62.0651 25.8648 61.6309 26.3255 61.0675 26.657C60.5074 26.9851 59.8412 27.1491 59.0689 27.1491ZM59.0789 25.5085C59.4302 25.5085 59.7235 25.4091 59.9588 25.2102C60.1942 25.008 60.3715 24.733 60.4908 24.3849C60.6134 24.0369 60.6747 23.6409 60.6747 23.1967C60.6747 22.7526 60.6134 22.3565 60.4908 22.0085C60.3715 21.6605 60.1942 21.3854 59.9588 21.1832C59.7235 20.9811 59.4302 20.88 59.0789 20.88C58.7242 20.88 58.4259 20.9811 58.184 21.1832C57.9453 21.3854 57.7647 21.6605 57.6421 22.0085C57.5228 22.3565 57.4631 22.7526 57.4631 23.1967C57.4631 23.6409 57.5228 24.0369 57.6421 24.3849C57.7647 24.733 57.9453 25.008 58.184 25.2102C58.4259 25.4091 58.7242 25.5085 59.0789 25.5085ZM66.3225 16.8182V27H64.2046V16.8182H66.3225ZM72.0808 19.3636V20.9545H67.4821V19.3636H72.0808ZM68.5261 17.5341H70.644V24.6534C70.644 24.849 70.6739 25.0014 70.7335 25.1108C70.7932 25.2169 70.876 25.2914 70.9821 25.3345C71.0915 25.3776 71.2174 25.3991 71.3599 25.3991C71.4594 25.3991 71.5588 25.3909 71.6582 25.3743C71.7577 25.3544 71.8339 25.3395 71.8869 25.3295L72.22 26.9055C72.114 26.9387 71.9648 26.9768 71.7726 27.0199C71.5803 27.0663 71.3467 27.0945 71.0716 27.1044C70.5612 27.1243 70.1137 27.0563 69.7292 26.9006C69.3481 26.7448 69.0515 26.5028 68.8393 26.1747C68.6272 25.8466 68.5228 25.4323 68.5261 24.9318V17.5341ZM75.638 27.1442C75.1508 27.1442 74.7166 27.0597 74.3354 26.8906C73.9543 26.7183 73.6527 26.4647 73.4306 26.13C73.2118 25.7919 73.1025 25.371 73.1025 24.8672C73.1025 24.4429 73.1804 24.0866 73.3361 23.7983C73.4919 23.5099 73.704 23.2779 73.9725 23.1023C74.241 22.9266 74.5459 22.794 74.8873 22.7045C75.232 22.6151 75.5932 22.5521 75.9711 22.5156C76.4152 22.4692 76.7732 22.4261 77.0449 22.3864C77.3167 22.3433 77.5139 22.2803 77.6366 22.1974C77.7592 22.1146 77.8205 21.992 77.8205 21.8295V21.7997C77.8205 21.4848 77.7211 21.2412 77.5222 21.0689C77.3267 20.8965 77.0483 20.8104 76.687 20.8104C76.3058 20.8104 76.0026 20.8949 75.7772 21.0639C75.5518 21.2296 75.4027 21.4384 75.3297 21.6903L73.3709 21.5312C73.4704 21.0672 73.6659 20.6662 73.9576 20.3281C74.2493 19.9867 74.6254 19.7249 75.0861 19.5426C75.5502 19.357 76.0871 19.2642 76.6969 19.2642C77.1212 19.2642 77.5272 19.3139 77.915 19.4134C78.3061 19.5128 78.6524 19.6669 78.954 19.8757C79.259 20.0845 79.4993 20.353 79.6749 20.6811C79.8506 21.0059 79.9384 21.3954 79.9384 21.8494V27H77.9299V25.9411H77.8702C77.7476 26.1797 77.5835 26.3902 77.378 26.5724C77.1725 26.7514 76.9256 26.8923 76.6373 26.995C76.3489 27.0945 76.0158 27.1442 75.638 27.1442ZM76.2445 25.6825C76.5561 25.6825 76.8312 25.6212 77.0698 25.4986C77.3084 25.3726 77.4957 25.2036 77.6316 24.9915C77.7675 24.7794 77.8354 24.5391 77.8354 24.2706V23.4602C77.7691 23.5033 77.678 23.5431 77.562 23.5795C77.4493 23.6127 77.3217 23.6442 77.1792 23.674C77.0367 23.7005 76.8941 23.7254 76.7516 23.7486C76.6091 23.7685 76.4798 23.7867 76.3638 23.8033C76.1153 23.8397 75.8982 23.8977 75.7126 23.9773C75.527 24.0568 75.3828 24.1645 75.28 24.3004C75.1773 24.433 75.1259 24.5987 75.1259 24.7976C75.1259 25.0859 75.2303 25.3063 75.4391 25.4588C75.6512 25.608 75.9197 25.6825 76.2445 25.6825ZM81.5815 27V19.3636H83.6348V20.696H83.7143C83.8535 20.2221 84.0872 19.8641 84.4153 19.6222C84.7435 19.3769 85.1213 19.2543 85.5489 19.2543C85.6549 19.2543 85.7693 19.2609 85.8919 19.2741C86.0145 19.2874 86.1222 19.3056 86.215 19.3288V21.2081C86.1156 21.1783 85.9781 21.1518 85.8024 21.1286C85.6267 21.1054 85.466 21.0938 85.3202 21.0938C85.0086 21.0938 84.7302 21.1617 84.4849 21.2976C84.243 21.4302 84.0507 21.6158 83.9082 21.8544C83.769 22.093 83.6994 22.3681 83.6994 22.6797V27H81.5815Z" fill="#55A3FF"/>
<path d="M22 30L14 22L22 14L23.05 15.05L16.85 21.25H30V22.75H16.85L23.05 28.95L22 30Z" fill="#55A3FF"/>
</svg>
